<svg xmlns="http://www.w3.org/2000/svg" width="32" height="32" viewBox="0 0 512 512">
    <defs>
        <style>.fa-secondary{opacity:.4}</style>
    </defs>
    <path fill="#2C2C2C"
          d="M448 32C483.3 32 512 60.65 512 96V160C512 195.3 483.3 224 448 224H64C28.65 224 0 195.3 0 160V96C0 60.65 28.65 32 64 32H448zM448 288C483.3 288 512 316.7 512 352V416C512 451.3 483.3 480 448 480H288C252.7 480 224 451.3 224 416V352C224 316.7 252.7 288 288 288H448z"
          class="fa-primary"/>
    <path fill="#2C2C2C" d="M96 320V224H160V320C160 337.7 174.3 352 192 352H224V416H192C138.1 416 96 373 96 320z"
          class="fa-secondary"/>
</svg>